<?xml version="1.0" encoding="utf-8"?>
<!-- Generator: Adobe Illustrator 23.0.4, SVG Export Plug-In . SVG Version: 6.00 Build 0)  -->
<svg version="1.1" xmlns="http://www.w3.org/2000/svg" xmlns:xlink="http://www.w3.org/1999/xlink" x="0px" y="0px"
	 viewBox="0 0 765.5 311.8" style="enable-background:new 0 0 765.5 311.8;" xml:space="preserve">
<style type="text/css">
	.st0{fill:#7AB51D;}
	.st1{fill:none;}
</style>
<g id="Symbol">
	<g>
		<path class="st0" d="M186.7,70.8c39.2,17,66.7,58.1,66.7,98.8c0,31.3-15.9,59.3-41.1,78.3c-0.2,0.1-0.4,0.3-0.5,0.4
			c-20.8,15.6-47.9,25-77.6,25c-30.2,0-59.9-8-80.9-24.2c31.3,30.7,80.3,48.5,132.6,48.5c87.3,0,159.2-54.2,169.6-124.2
			c0.4-2.6,0.7-5.1,0.9-7.7c0.3-2.7,0.4-5.5,0.4-8.2c0-0.3,0-0.5,0-0.8c-0.5-52.6-49.6-98.6-110.1-98.6
			C224.8,58.1,203.8,61.2,186.7,70.8z"/>
		<path class="st0" d="M186.7,240.9c-39.2-17-66.7-58-66.7-98.7c0-31.3,15.9-59.3,41.1-78.4c0.2-0.1,0.4-0.3,0.5-0.4
			c20.8-15.6,47.9-25,77.6-25c30.2,0,59.9,7.9,80.9,24c-31.3-30.7-80.3-48.3-132.6-48.3c-87.3,0-159.2,54.2-169.6,124.2
			c-0.4,2.6-0.7,5.1-0.9,7.7c-0.3,2.7-0.4,5.5-0.4,8.2c0,0.3,0,0.5,0,0.8c0.5,52.6,49.6,98.6,110.1,98.6
			C148.6,253.7,169.6,250.4,186.7,240.9z"/>
	</g>
</g>
<g id="Type">
	<g>
		<path class="st0" d="M413.5,70.8h63.1c33.9,0,55.8,11.3,57.7,41.7c0,17.7-7.3,31.3-25.9,38.6c22.1,9,29.7,19.1,29.7,45
			c0,26.4-18.6,44.8-62,44.8h-62.7V70.8z M446,138.6h32.5c15.5,0,23.3-9,23.3-20.7c0-11.8-7.8-20.7-23.3-20.7H446V138.6z M446,214.5
			h32.5c18.8,0,27.1-8.5,27.1-24.7c0-16.3-8.2-24.7-27.1-24.7H446V214.5z"/>
		<path class="st0" d="M564.2,240.9V70.8h32.5v170.1H564.2z"/>
		<path class="st0" d="M626.7,240.9V70.8h67.8c38.6,0,54.2,22.4,54.4,50.4c0.2,21-10.4,37.9-31.1,43.8l37.5,75.8h-36l-32-69.3h-28
			v69.3H626.7z M659.2,145.2h24c25.4,0,33.2-8,33.2-24c0-16-9.6-24-27.6-24h-29.7V145.2z"/>
	</g>
	<rect class="st1" width="765.5" height="311.8"/>
</g>
</svg>
